<?xml version="1.0" encoding="utf-8"?>
<!-- Generator: Adobe Illustrator 24.3.0, SVG Export Plug-In . SVG Version: 6.00 Build 0)  -->
<svg version="1.1" xmlns="http://www.w3.org/2000/svg" xmlns:xlink="http://www.w3.org/1999/xlink" x="0px" y="0px"
	 viewBox="0 0 595.3 841.9" style="enable-background:new 0 0 595.3 841.9;" xml:space="preserve">
<style type="text/css">
	.st0{fill:none;stroke:#000000;stroke-miterlimit:10;}
</style>
<g id="Warstwa_3">
	<rect x="238" y="83.3" class="st0" width="34" height="24.1"/>
	<rect x="113.2" y="171.3" class="st0" width="8.5" height="34"/>
	<rect x="109" y="221.6" class="st0" width="9.9" height="14.2"/>
	<g>
		<path class="st0" d="M395,92.6c0,8.2-6.7,14.9-14.9,14.9h-81.9c-8.2,0-14.9-6.7-14.9-14.9s6.7-14.9,14.9-14.9h81.9
			C388.3,77.7,395,84.4,395,92.6z"/>
	</g>
</g>
<g id="Warstwa_2">
	<g>
		<path class="st0" d="M470.2,121.4c3.1,0,5.7,2.6,5.7,5.7v256.4c0,3.1-2.6,5.7-5.7,5.7H158c-3.1,0-5.7-2.6-5.7-5.7V127
			c0-3.1,2.6-5.7,5.7-5.7H470.2z"/>
	</g>
	<circle class="st0" cx="435.4" cy="281.9" r="9.2"/>
	<circle class="st0" cx="435.4" cy="227.9" r="9.2"/>
	<circle class="st0" cx="392.2" cy="199.1" r="9.2"/>
	<circle class="st0" cx="392.2" cy="163.1" r="9.2"/>
	<circle class="st0" cx="392.2" cy="350.2" r="9.2"/>
	<circle class="st0" cx="392.2" cy="307" r="9.2"/>
	<circle class="st0" cx="413.8" cy="328.7" r="9.2"/>
	<circle class="st0" cx="370.7" cy="328.7" r="9.2"/>
	<circle class="st0" cx="450.5" cy="146.8" r="3.5"/>
	<circle class="st0" cx="450.5" cy="363.6" r="3.5"/>
	<circle class="st0" cx="177.8" cy="363.6" r="3.5"/>
	<circle class="st0" cx="177.8" cy="146.8" r="3.5"/>
	
		<rect x="440.4" y="199.3" transform="matrix(6.123234e-17 -1 1 6.123234e-17 262.3727 669.5075)" class="st0" width="51" height="8.5"/>
	
		<rect x="440.4" y="301.4" transform="matrix(6.123234e-17 -1 1 6.123234e-17 160.3254 771.5547)" class="st0" width="51" height="8.5"/>
	
		<rect x="109.4" y="200.6" transform="matrix(6.123234e-17 -1 1 6.123234e-17 -42.5773 367.1312)" class="st0" width="105.8" height="8.5"/>
	
		<rect x="129.9" y="294.6" transform="matrix(6.123234e-17 -1 1 6.123234e-17 -136.5275 461.0814)" class="st0" width="64.8" height="8.5"/>
	
		<rect x="250.7" y="349.7" transform="matrix(6.123234e-17 -1 1 6.123234e-17 -124.1781 634.1179)" class="st0" width="8.5" height="59"/>
	
		<rect x="368.6" y="349.7" transform="matrix(6.123234e-17 -1 1 6.123234e-17 -6.2568 752.0391)" class="st0" width="8.5" height="59"/>
	
		<rect x="250.9" y="101.8" transform="matrix(6.123234e-17 -1 1 6.123234e-17 123.8639 386.4319)" class="st0" width="8.5" height="59"/>
	
		<rect x="368.8" y="101.8" transform="matrix(6.123234e-17 -1 1 6.123234e-17 241.7852 504.3531)" class="st0" width="8.5" height="59"/>
	<polygon class="st0" points="489.7,70.2 489.7,112.8 481.2,112.8 481.2,163.8 489.7,163.8 489.7,214.8 481.2,214.8 481.2,265.8 
		489.7,265.8 489.7,309.6 528,309.6 528,265.8 536.5,265.8 536.5,214.8 528,214.8 528,163.8 536.5,163.8 536.5,112.8 528,112.8 
		528,70.2 	"/>
	<polygon class="st0" points="536.5,455.2 536.5,396.4 528,396.4 528,328.7 489.7,328.7 489.7,396.4 481.2,396.4 481.2,455.2 
		489.7,455.2 489.7,514.6 481.2,514.6 481.2,572.4 489.7,572.4 489.7,640.8 528,640.8 528,572.4 536.5,572.4 536.5,514.6 528,514.6 
		528,455.2 	"/>
	<polygon class="st0" points="408.5,69.2 392.1,69.2 392.1,60.7 286.3,60.7 286.3,69.2 277.7,69.2 277.7,60.7 213,60.7 213,69.2 
		169.2,69.2 169.2,107.4 213,107.4 213,115.9 277.7,115.9 277.7,107.4 286.3,107.4 286.3,115.9 392.1,115.9 392.1,107.4 
		408.5,107.4 	"/>
	<polygon class="st0" points="145.8,254.8 145.8,196 137.3,196 137.3,128.3 99,128.3 99,196 90.5,196 90.5,254.8 99,254.8 99,314.2 
		90.5,314.2 90.5,372.1 99,372.1 99,440.5 137.3,440.5 137.3,372.1 145.8,372.1 145.8,314.2 137.3,314.2 137.3,254.8 	"/>
	<g>
		<path class="st0" d="M470.2,397.2c3.1,0,5.7,2.6,5.7,5.7v256.4c0,3.1-2.6,5.7-5.7,5.7H158c-3.1,0-5.7-2.6-5.7-5.7V402.9
			c0-3.1,2.6-5.7,5.7-5.7H470.2z"/>
	</g>
	<circle class="st0" cx="450.5" cy="422.6" r="3.5"/>
	<circle class="st0" cx="450.5" cy="639.4" r="3.5"/>
	<circle class="st0" cx="177.8" cy="639.5" r="3.5"/>
	<circle class="st0" cx="177.8" cy="422.7" r="3.5"/>
	
		<rect x="440.4" y="475.2" transform="matrix(6.123234e-17 -1 1 6.123234e-17 -13.4942 945.3744)" class="st0" width="51" height="8.5"/>
	
		<rect x="440.4" y="577.2" transform="matrix(6.123234e-17 -1 1 6.123234e-17 -115.5415 1047.4216)" class="st0" width="51" height="8.5"/>
	
		<rect x="109.4" y="476.5" transform="matrix(6.123234e-17 -1 1 6.123234e-17 -318.4441 642.998)" class="st0" width="105.8" height="8.5"/>
	
		<rect x="129.9" y="570.4" transform="matrix(6.123234e-17 -1 1 6.123234e-17 -412.3943 736.9482)" class="st0" width="64.8" height="8.5"/>
	
		<rect x="250.7" y="625.5" transform="matrix(6.123234e-17 -1 1 6.123234e-17 -400.0449 909.9847)" class="st0" width="8.5" height="59"/>
	
		<rect x="368.6" y="625.5" transform="matrix(6.123234e-17 -1 1 6.123234e-17 -282.1237 1027.9059)" class="st0" width="8.5" height="59"/>
	
		<rect x="250.9" y="377.7" transform="matrix(6.123234e-17 -1 1 6.123234e-17 -152.0029 662.2987)" class="st0" width="8.5" height="59"/>
	
		<rect x="368.8" y="377.7" transform="matrix(6.123234e-17 -1 1 6.123234e-17 -34.0817 780.22)" class="st0" width="8.5" height="59"/>
</g>
</svg>
